<?xml version="1.0" encoding="UTF-8" standalone="no"?>
<svg id="frankfurter" xmlns:rdf="http://www.w3.org/1999/02/22-rdf-syntax-ns#" xmlns="http://www.w3.org/2000/svg" enable-background="new 0 0 64 64" xml:space="preserve" viewBox="0 0 64 64" height="100%" width="100%" version="1.1" y="0px" x="0px" xmlns:cc="http://creativecommons.org/ns#" xmlns:dc="http://purl.org/dc/elements/1.1/"><metadata id="metadata19"><rdf:RDF><cc:Work rdf:about=""><dc:format>image/svg+xml</dc:format><dc:type rdf:resource="http://purl.org/dc/dcmitype/StillImage"/><dc:title/></cc:Work></rdf:RDF></metadata><path id="top-bun" d="M55.2,19.5h-46.4v-4.8c0-4.3,3.4-7.7,7.7-7.7h30.9c4.3,0,7.7,3.4,7.7,7.7v4.8z" fill="#000"/><path id="hot-dog" d="M55.3,40.8h-46.6c-4.8,0-8.7-4-8.7-8.8s3.9-8.7,8.7-8.7h46.5c4.8,0,8.7,3.9,8.7,8.7,0.1,4.8-3.8,8.8-8.6,8.8z" fill="#000"/><path id="bottom-bun" d="M47.5,57h-31c-4.3,0-7.7-3.4-7.7-7.7v-4.8h46.3v4.8c0.1,4.3-3.4,7.7-7.6,7.7z" fill="#000"/><g id="condiment" fill="#000"><path d="M52.1,34.6c-1,0-2-0.3-2.9-1l-1.1-0.9c-0.6-0.5-1.5-0.5-2.1,0l-1.1,0.9c-1.7,1.3-4.1,1.3-5.8,0l-1.1-0.9c-0.6-0.5-1.5-0.5-2.1,0l-1.1,0.9c-1.7,1.3-4.1,1.4-5.8,0l-1.1-0.9c-0.6-0.5-1.5-0.5-2.1,0l-1.1,0.9c-1.7,1.4-4,1.4-5.7,0l-1.1-0.9c-0.6-0.5-1.5-0.5-2.1,0l-1.1,0.9c-1.7,1.4-4.1,1.4-5.8,0l-0.6-0.4c-0.6-0.5-0.8-1.5-0.2-2.1,0.5-0.6,1.5-0.8,2.1-0.2l0.6,0.4c0.6,0.5,1.5,0.5,2.1,0l1.1-0.9c1.7-1.4,4.1-1.4,5.8,0l1.1,0.9c0.6,0.5,1.5,0.5,2.1,0l1.1-0.9c1.7-1.3,4.1-1.4,5.8,0l1.1,0.9c0.6,0.5,1.5,0.5,2.1,0l1.1-0.9c1.7-1.3,4.1-1.3,5.8,0l1.1,0.9c0.6,0.5,1.5,0.5,2.1,0l1.1-0.9c1.7-1.3,4.1-1.3,5.8,0l1.1,0.9c0.6,0.5,1.5,0.5,2.1,0l0.6-0.4c0.6-0.5,1.6-0.4,2.1,0.2s0.4,1.6-0.2,2.1l-0.8,0.4c-0.8,0.7-1.8,1-2.9,1z" fill="#000"/></g></svg>
